<?xml version="1.0" encoding="UTF-8" standalone="no"?>
<!DOCTYPE svg PUBLIC "-//W3C//DTD SVG 1.1//EN"
 "http://www.w3.org/Graphics/SVG/1.1/DTD/svg11.dtd">
<!-- Generated by graphviz version 2.43.0 (0)
 -->
<!-- Title: G Pages: 1 -->
<svg width="950pt" height="805pt"
 viewBox="0.00 0.00 950.00 804.92" xmlns="http://www.w3.org/2000/svg" xmlns:xlink="http://www.w3.org/1999/xlink">
<g id="graph0" class="graph" transform="scale(1 1) rotate(0) translate(4 800.92)">
<title>G</title>
<polygon fill="white" stroke="transparent" points="-4,4 -4,-800.92 946,-800.92 946,4 -4,4"/>
<g id="clust1" class="cluster">
<title>cluster_G</title>
<path fill="#808080" fill-opacity="0.094118" stroke="black" d="M20,-8C20,-8 922,-8 922,-8 928,-8 934,-14 934,-20 934,-20 934,-776.92 934,-776.92 934,-782.92 928,-788.92 922,-788.92 922,-788.92 20,-788.92 20,-788.92 14,-788.92 8,-782.92 8,-776.92 8,-776.92 8,-20 8,-20 8,-14 14,-8 20,-8"/>
</g>
<g id="clust2" class="cluster">
<title>cluster_calcobject</title>
<path fill="#808080" fill-opacity="0.094118" stroke="black" d="M28,-644.18C28,-644.18 222,-644.18 222,-644.18 228,-644.18 234,-650.18 234,-656.18 234,-656.18 234,-724.92 234,-724.92 234,-730.92 228,-736.92 222,-736.92 222,-736.92 28,-736.92 28,-736.92 22,-736.92 16,-730.92 16,-724.92 16,-724.92 16,-656.18 16,-656.18 16,-650.18 22,-644.18 28,-644.18"/>
<text text-anchor="middle" x="125" y="-721.72" font-family="Times,serif" font-size="14.00">calcobject</text>
</g>
<g id="clust3" class="cluster">
<title>cluster_calcobject__Calc</title>
<path fill="#808080" fill-opacity="0.094118" stroke="black" d="M254,-16C254,-16 902,-16 902,-16 908,-16 914,-22 914,-28 914,-28 914,-724.92 914,-724.92 914,-730.92 908,-736.92 902,-736.92 902,-736.92 254,-736.92 254,-736.92 248,-736.92 242,-730.92 242,-724.92 242,-724.92 242,-28 242,-28 242,-22 248,-16 254,-16"/>
<text text-anchor="middle" x="578" y="-721.72" font-family="Times,serif" font-size="14.00">calcobject.Calc</text>
</g>
<!-- calcobject -->
<g id="node1" class="node">
<title>calcobject</title>
<ellipse fill="#ffffff" fill-opacity="0.698039" stroke="black" cx="805" cy="-762.92" rx="57.39" ry="18"/>
<text text-anchor="middle" x="805" y="-759.22" font-family="Times,serif" font-size="14.00" fill="#000000">calcobject</text>
</g>
<!-- calcobject__Calc -->
<g id="node2" class="node">
<title>calcobject__Calc</title>
<ellipse fill="#fecccc" fill-opacity="0.698039" stroke="black" cx="125" cy="-679.05" rx="101.23" ry="26.74"/>
<text text-anchor="middle" x="125" y="-682.85" font-family="Times,serif" font-size="14.00" fill="#000000">Calc</text>
<text text-anchor="middle" x="125" y="-667.85" font-family="Times,serif" font-size="14.00" fill="#000000">(calcobject.py:17)</text>
</g>
<!-- calcobject&#45;&gt;calcobject__Calc -->
<g id="edge2" class="edge">
<title>calcobject&#45;&gt;calcobject__Calc</title>
<path fill="none" stroke="#000000" d="M747.77,-762.43C623.59,-763.05 332.99,-761.7 238,-736.92 214.96,-730.91 191.18,-719.8 171.4,-708.97"/>
<polygon fill="#000000" stroke="#000000" points="173.05,-705.89 162.62,-704.04 169.62,-711.99 173.05,-705.89"/>
</g>
<!-- calcobject__Calc____init__ -->
<g id="node3" class="node">
<title>calcobject__Calc____init__</title>
<ellipse fill="#ff9999" fill-opacity="0.698039" stroke="black" cx="805" cy="-679.05" rx="101.23" ry="26.74"/>
<text text-anchor="middle" x="805" y="-682.85" font-family="Times,serif" font-size="14.00" fill="#000000">__init__</text>
<text text-anchor="middle" x="805" y="-667.85" font-family="Times,serif" font-size="14.00" fill="#000000">(calcobject.py:18)</text>
</g>
<!-- calcobject&#45;&gt;calcobject__Calc____init__ -->
<g id="edge3" class="edge">
<title>calcobject&#45;&gt;calcobject__Calc____init__</title>
<path fill="none" stroke="#000000" d="M805,-744.56C805,-736.27 805,-726.02 805,-716.15"/>
<polygon fill="#000000" stroke="#000000" points="808.5,-716.1 805,-706.1 801.5,-716.1 808.5,-716.1"/>
</g>
<!-- calcobject__Calc__answer -->
<g id="node5" class="node">
<title>calcobject__Calc__answer</title>
<ellipse fill="#ff9999" fill-opacity="0.698039" stroke="black" cx="461" cy="-589.31" rx="101.23" ry="26.74"/>
<text text-anchor="middle" x="461" y="-593.11" font-family="Times,serif" font-size="14.00" fill="#000000">answer</text>
<text text-anchor="middle" x="461" y="-578.11" font-family="Times,serif" font-size="14.00" fill="#000000">(calcobject.py:57)</text>
</g>
<!-- calcobject&#45;&gt;calcobject__Calc__answer -->
<g id="edge1" class="edge">
<title>calcobject&#45;&gt;calcobject__Calc__answer</title>
<path fill="none" stroke="#000000" d="M858.04,-756.17C882.42,-752.32 907.58,-746.22 915,-736.92 940.71,-704.71 942.37,-675 915,-644.18 892.43,-618.78 696.93,-603.26 569.93,-595.76"/>
<polygon fill="#000000" stroke="#000000" points="569.96,-592.26 559.77,-595.17 569.55,-599.25 569.96,-592.26"/>
</g>
<!-- calcobject__Calc____repr__ -->
<g id="node4" class="node">
<title>calcobject__Calc____repr__</title>
<ellipse fill="#ff9999" fill-opacity="0.698039" stroke="black" cx="578" cy="-679.05" rx="107.46" ry="26.74"/>
<text text-anchor="middle" x="578" y="-682.85" font-family="Times,serif" font-size="14.00" fill="#000000">__repr__</text>
<text text-anchor="middle" x="578" y="-667.85" font-family="Times,serif" font-size="14.00" fill="#000000">(calcobject.py:114)</text>
</g>
<!-- calcobject__Calc__postfix -->
<g id="node11" class="node">
<title>calcobject__Calc__postfix</title>
<ellipse fill="#ff9999" fill-opacity="0.698039" stroke="black" cx="376" cy="-499.57" rx="101.23" ry="26.74"/>
<text text-anchor="middle" x="376" y="-503.37" font-family="Times,serif" font-size="14.00" fill="#000000">postfix</text>
<text text-anchor="middle" x="376" y="-488.37" font-family="Times,serif" font-size="14.00" fill="#000000">(calcobject.py:53)</text>
</g>
<!-- calcobject__Calc__answer&#45;&gt;calcobject__Calc__postfix -->
<g id="edge10" class="edge">
<title>calcobject__Calc__answer&#45;&gt;calcobject__Calc__postfix</title>
<path fill="none" stroke="#000000" d="M436.41,-562.93C427.43,-553.66 417.13,-543.03 407.62,-533.21"/>
<polygon fill="#000000" stroke="#000000" points="410,-530.64 400.53,-525.89 404.97,-535.51 410,-530.64"/>
</g>
<!-- calcobject__Calc__strparenthesized -->
<g id="node13" class="node">
<title>calcobject__Calc__strparenthesized</title>
<ellipse fill="#ff9999" fill-opacity="0.698039" stroke="black" cx="571" cy="-409.83" rx="101.23" ry="26.74"/>
<text text-anchor="middle" x="571" y="-413.63" font-family="Times,serif" font-size="14.00" fill="#000000">strparenthesized</text>
<text text-anchor="middle" x="571" y="-398.63" font-family="Times,serif" font-size="14.00" fill="#000000">(calcobject.py:41)</text>
</g>
<!-- calcobject__Calc__answer&#45;&gt;calcobject__Calc__strparenthesized -->
<g id="edge11" class="edge">
<title>calcobject__Calc__answer&#45;&gt;calcobject__Calc__strparenthesized</title>
<path fill="none" stroke="#000000" d="M476.99,-562.5C496.19,-531.53 528.46,-479.47 549.74,-445.13"/>
<polygon fill="#000000" stroke="#000000" points="552.87,-446.72 555.16,-436.38 546.92,-443.04 552.87,-446.72"/>
</g>
<!-- calcobject__Calc__extracted -->
<g id="node6" class="node">
<title>calcobject__Calc__extracted</title>
<ellipse fill="#ff9999" fill-opacity="0.698039" stroke="black" cx="436" cy="-140.61" rx="101.23" ry="26.74"/>
<text text-anchor="middle" x="436" y="-144.41" font-family="Times,serif" font-size="14.00" fill="#000000">extracted</text>
<text text-anchor="middle" x="436" y="-129.41" font-family="Times,serif" font-size="14.00" fill="#000000">(calcobject.py:33)</text>
</g>
<!-- calcobject__Calc__parsed -->
<g id="node10" class="node">
<title>calcobject__Calc__parsed</title>
<ellipse fill="#ff9999" fill-opacity="0.698039" stroke="black" cx="436" cy="-50.87" rx="101.23" ry="26.74"/>
<text text-anchor="middle" x="436" y="-54.67" font-family="Times,serif" font-size="14.00" fill="#000000">parsed</text>
<text text-anchor="middle" x="436" y="-39.67" font-family="Times,serif" font-size="14.00" fill="#000000">(calcobject.py:29)</text>
</g>
<!-- calcobject__Calc__extracted&#45;&gt;calcobject__Calc__parsed -->
<g id="edge4" class="edge">
<title>calcobject__Calc__extracted&#45;&gt;calcobject__Calc__parsed</title>
<path fill="none" stroke="#000000" d="M436,-113.29C436,-105.32 436,-96.43 436,-87.94"/>
<polygon fill="#000000" stroke="#000000" points="439.5,-87.87 436,-77.87 432.5,-87.87 439.5,-87.87"/>
</g>
<!-- calcobject__Calc__flattened -->
<g id="node7" class="node">
<title>calcobject__Calc__flattened</title>
<ellipse fill="#ff9999" fill-opacity="0.698039" stroke="black" cx="436" cy="-230.35" rx="101.23" ry="26.74"/>
<text text-anchor="middle" x="436" y="-234.15" font-family="Times,serif" font-size="14.00" fill="#000000">flattened</text>
<text text-anchor="middle" x="436" y="-219.15" font-family="Times,serif" font-size="14.00" fill="#000000">(calcobject.py:37)</text>
</g>
<!-- calcobject__Calc__flattened&#45;&gt;calcobject__Calc__extracted -->
<g id="edge5" class="edge">
<title>calcobject__Calc__flattened&#45;&gt;calcobject__Calc__extracted</title>
<path fill="none" stroke="#000000" d="M436,-203.03C436,-195.06 436,-186.17 436,-177.68"/>
<polygon fill="#000000" stroke="#000000" points="439.5,-177.61 436,-167.61 432.5,-177.61 439.5,-177.61"/>
</g>
<!-- calcobject__Calc__listparenthesized -->
<g id="node8" class="node">
<title>calcobject__Calc__listparenthesized</title>
<ellipse fill="#ff9999" fill-opacity="0.698039" stroke="black" cx="351" cy="-320.09" rx="101.23" ry="26.74"/>
<text text-anchor="middle" x="351" y="-323.89" font-family="Times,serif" font-size="14.00" fill="#000000">listparenthesized</text>
<text text-anchor="middle" x="351" y="-308.89" font-family="Times,serif" font-size="14.00" fill="#000000">(calcobject.py:45)</text>
</g>
<!-- calcobject__Calc__listparenthesized&#45;&gt;calcobject__Calc__flattened -->
<g id="edge7" class="edge">
<title>calcobject__Calc__listparenthesized&#45;&gt;calcobject__Calc__flattened</title>
<path fill="none" stroke="#000000" d="M375.59,-293.71C384.57,-284.44 394.87,-273.81 404.38,-263.99"/>
<polygon fill="#000000" stroke="#000000" points="407.03,-266.29 411.47,-256.67 402,-261.42 407.03,-266.29"/>
</g>
<!-- calcobject__Calc__numerized -->
<g id="node9" class="node">
<title>calcobject__Calc__numerized</title>
<ellipse fill="#ff9999" fill-opacity="0.698039" stroke="black" cx="351" cy="-409.83" rx="101.23" ry="26.74"/>
<text text-anchor="middle" x="351" y="-413.63" font-family="Times,serif" font-size="14.00" fill="#000000">numerized</text>
<text text-anchor="middle" x="351" y="-398.63" font-family="Times,serif" font-size="14.00" fill="#000000">(calcobject.py:49)</text>
</g>
<!-- calcobject__Calc__numerized&#45;&gt;calcobject__Calc__listparenthesized -->
<g id="edge8" class="edge">
<title>calcobject__Calc__numerized&#45;&gt;calcobject__Calc__listparenthesized</title>
<path fill="none" stroke="#000000" d="M351,-382.51C351,-374.54 351,-365.65 351,-357.16"/>
<polygon fill="#000000" stroke="#000000" points="354.5,-357.09 351,-347.09 347.5,-357.09 354.5,-357.09"/>
</g>
<!-- calcobject__Calc__postfix&#45;&gt;calcobject__Calc__numerized -->
<g id="edge9" class="edge">
<title>calcobject__Calc__postfix&#45;&gt;calcobject__Calc__numerized</title>
<path fill="none" stroke="#000000" d="M368.63,-472.72C366.29,-464.49 363.65,-455.24 361.15,-446.45"/>
<polygon fill="#000000" stroke="#000000" points="364.51,-445.46 358.4,-436.8 357.77,-447.38 364.51,-445.46"/>
</g>
<!-- calcobject__Calc__stranswer -->
<g id="node12" class="node">
<title>calcobject__Calc__stranswer</title>
<ellipse fill="#ff9999" fill-opacity="0.698039" stroke="black" cx="351" cy="-679.05" rx="101.23" ry="26.74"/>
<text text-anchor="middle" x="351" y="-682.85" font-family="Times,serif" font-size="14.00" fill="#000000">stranswer</text>
<text text-anchor="middle" x="351" y="-667.85" font-family="Times,serif" font-size="14.00" fill="#000000">(calcobject.py:76)</text>
</g>
<!-- calcobject__Calc__stranswer&#45;&gt;calcobject__Calc__answer -->
<g id="edge12" class="edge">
<title>calcobject__Calc__stranswer&#45;&gt;calcobject__Calc__answer</title>
<path fill="none" stroke="#000000" d="M381.93,-653.38C394.35,-643.47 408.81,-631.94 421.94,-621.46"/>
<polygon fill="#000000" stroke="#000000" points="424.28,-624.08 429.92,-615.1 419.92,-618.6 424.28,-624.08"/>
</g>
<!-- calcobject__Calc__strparenthesized&#45;&gt;calcobject__Calc__flattened -->
<g id="edge6" class="edge">
<title>calcobject__Calc__strparenthesized&#45;&gt;calcobject__Calc__flattened</title>
<path fill="none" stroke="#000000" d="M551.66,-383.4C528,-352.3 487.87,-299.54 461.65,-265.08"/>
<polygon fill="#000000" stroke="#000000" points="464.15,-262.57 455.31,-256.73 458.57,-266.81 464.15,-262.57"/>
</g>
</g>
</svg>
